<mxfile host="Electron" modified="2024-08-13T18:36:04.849Z" agent="Mozilla/5.0 (Windows NT 10.0; Win64; x64) AppleWebKit/537.36 (KHTML, like Gecko) draw.io/24.6.4 Chrome/124.0.6367.207 Electron/30.0.6 Safari/537.36" etag="cexEfOZNn5nqJdCTO05f" version="24.6.4" type="device">
  <diagram name="第 1 页" id="TtZvvJCvZjgDRntWb_st">
    <mxGraphModel dx="1673" dy="879" grid="1" gridSize="10" guides="1" tooltips="1" connect="1" arrows="1" fold="1" page="1" pageScale="1" pageWidth="827" pageHeight="1169" math="0" shadow="0">
      <root>
        <mxCell id="0" />
        <mxCell id="1" parent="0" />
        <mxCell id="FM3w3FgmYkmISxwEuaXy-31" value="" style="rounded=0;whiteSpace=wrap;html=1;" vertex="1" parent="1">
          <mxGeometry x="30" y="330" width="780" height="440" as="geometry" />
        </mxCell>
        <mxCell id="FM3w3FgmYkmISxwEuaXy-10" value="" style="group;fontSize=14;fontStyle=1" vertex="1" connectable="0" parent="1">
          <mxGeometry x="70" y="350" width="120" height="390" as="geometry" />
        </mxCell>
        <mxCell id="FM3w3FgmYkmISxwEuaXy-1" value="ArithReadreg0" style="rounded=1;whiteSpace=wrap;html=1;fillColor=#ffe6cc;strokeColor=#d79b00;fontSize=14;fontStyle=1" vertex="1" parent="FM3w3FgmYkmISxwEuaXy-10">
          <mxGeometry width="120" height="60" as="geometry" />
        </mxCell>
        <mxCell id="FM3w3FgmYkmISxwEuaXy-2" value="ArithReadreg1" style="rounded=1;whiteSpace=wrap;html=1;fillColor=#ffe6cc;strokeColor=#d79b00;fontSize=14;fontStyle=1" vertex="1" parent="FM3w3FgmYkmISxwEuaXy-10">
          <mxGeometry y="108" width="120" height="60" as="geometry" />
        </mxCell>
        <mxCell id="FM3w3FgmYkmISxwEuaXy-3" value="MuldivReadreg" style="rounded=1;whiteSpace=wrap;html=1;fillColor=#ffe6cc;strokeColor=#d79b00;fontSize=14;fontStyle=1" vertex="1" parent="FM3w3FgmYkmISxwEuaXy-10">
          <mxGeometry y="216" width="120" height="60" as="geometry" />
        </mxCell>
        <mxCell id="FM3w3FgmYkmISxwEuaXy-4" value="MemoryReadreg" style="rounded=1;whiteSpace=wrap;html=1;fillColor=#ffe6cc;strokeColor=#d79b00;fontSize=14;fontStyle=1" vertex="1" parent="FM3w3FgmYkmISxwEuaXy-10">
          <mxGeometry y="330" width="120" height="60" as="geometry" />
        </mxCell>
        <mxCell id="FM3w3FgmYkmISxwEuaXy-11" value="" style="group;fontSize=14;fontStyle=1" vertex="1" connectable="0" parent="1">
          <mxGeometry x="660" y="350" width="120" height="390" as="geometry" />
        </mxCell>
        <mxCell id="FM3w3FgmYkmISxwEuaXy-6" value="ArithWriteBack0" style="rounded=1;whiteSpace=wrap;html=1;fillColor=#dae8fc;strokeColor=#6c8ebf;fontSize=14;fontStyle=1" vertex="1" parent="FM3w3FgmYkmISxwEuaXy-11">
          <mxGeometry width="120" height="60" as="geometry" />
        </mxCell>
        <mxCell id="FM3w3FgmYkmISxwEuaXy-7" value="ArithWriteBack1" style="rounded=1;whiteSpace=wrap;html=1;fillColor=#dae8fc;strokeColor=#6c8ebf;fontSize=14;fontStyle=1" vertex="1" parent="FM3w3FgmYkmISxwEuaXy-11">
          <mxGeometry y="108" width="120" height="60" as="geometry" />
        </mxCell>
        <mxCell id="FM3w3FgmYkmISxwEuaXy-8" value="MuldivWriteBack" style="rounded=1;whiteSpace=wrap;html=1;fillColor=#dae8fc;strokeColor=#6c8ebf;fontSize=14;fontStyle=1" vertex="1" parent="FM3w3FgmYkmISxwEuaXy-11">
          <mxGeometry y="216" width="120" height="60" as="geometry" />
        </mxCell>
        <mxCell id="FM3w3FgmYkmISxwEuaXy-9" value="MemoryWriteBack" style="rounded=1;whiteSpace=wrap;html=1;fillColor=#dae8fc;strokeColor=#6c8ebf;fontSize=14;fontStyle=1" vertex="1" parent="FM3w3FgmYkmISxwEuaXy-11">
          <mxGeometry y="330" width="120" height="60" as="geometry" />
        </mxCell>
        <mxCell id="FM3w3FgmYkmISxwEuaXy-17" value="" style="edgeStyle=orthogonalEdgeStyle;rounded=0;orthogonalLoop=1;jettySize=auto;html=1;fontSize=14;fontStyle=1" edge="1" parent="1" source="FM3w3FgmYkmISxwEuaXy-12" target="FM3w3FgmYkmISxwEuaXy-16">
          <mxGeometry relative="1" as="geometry" />
        </mxCell>
        <mxCell id="FM3w3FgmYkmISxwEuaXy-12" value="ArithExecute0" style="rounded=1;whiteSpace=wrap;html=1;fillColor=#fff2cc;strokeColor=#d6b656;fontSize=14;fontStyle=1" vertex="1" parent="1">
          <mxGeometry x="480" y="350" width="120" height="60" as="geometry" />
        </mxCell>
        <mxCell id="FM3w3FgmYkmISxwEuaXy-18" value="" style="edgeStyle=orthogonalEdgeStyle;rounded=0;orthogonalLoop=1;jettySize=auto;html=1;fontSize=14;fontStyle=1" edge="1" parent="1" source="FM3w3FgmYkmISxwEuaXy-13" target="FM3w3FgmYkmISxwEuaXy-16">
          <mxGeometry relative="1" as="geometry" />
        </mxCell>
        <mxCell id="FM3w3FgmYkmISxwEuaXy-13" value="ArithExecute1" style="rounded=1;whiteSpace=wrap;html=1;fillColor=#fff2cc;strokeColor=#d6b656;fontSize=14;fontStyle=1" vertex="1" parent="1">
          <mxGeometry x="480" y="460" width="120" height="60" as="geometry" />
        </mxCell>
        <mxCell id="FM3w3FgmYkmISxwEuaXy-19" value="" style="edgeStyle=orthogonalEdgeStyle;rounded=0;orthogonalLoop=1;jettySize=auto;html=1;fontSize=14;fontStyle=1" edge="1" parent="1" source="FM3w3FgmYkmISxwEuaXy-14" target="FM3w3FgmYkmISxwEuaXy-16">
          <mxGeometry relative="1" as="geometry" />
        </mxCell>
        <mxCell id="FM3w3FgmYkmISxwEuaXy-14" value="MuldivExecute" style="rounded=1;whiteSpace=wrap;html=1;fillColor=#fff2cc;strokeColor=#d6b656;fontSize=14;fontStyle=1" vertex="1" parent="1">
          <mxGeometry x="480" y="570" width="120" height="60" as="geometry" />
        </mxCell>
        <mxCell id="FM3w3FgmYkmISxwEuaXy-26" style="edgeStyle=orthogonalEdgeStyle;rounded=0;orthogonalLoop=1;jettySize=auto;html=1;fontSize=14;fontStyle=1" edge="1" parent="1" source="FM3w3FgmYkmISxwEuaXy-16" target="FM3w3FgmYkmISxwEuaXy-1">
          <mxGeometry relative="1" as="geometry" />
        </mxCell>
        <mxCell id="FM3w3FgmYkmISxwEuaXy-27" style="edgeStyle=orthogonalEdgeStyle;rounded=0;orthogonalLoop=1;jettySize=auto;html=1;fontSize=14;fontStyle=1" edge="1" parent="1" source="FM3w3FgmYkmISxwEuaXy-16" target="FM3w3FgmYkmISxwEuaXy-2">
          <mxGeometry relative="1" as="geometry" />
        </mxCell>
        <mxCell id="FM3w3FgmYkmISxwEuaXy-28" style="edgeStyle=orthogonalEdgeStyle;rounded=0;orthogonalLoop=1;jettySize=auto;html=1;fontSize=14;fontStyle=1" edge="1" parent="1" source="FM3w3FgmYkmISxwEuaXy-16" target="FM3w3FgmYkmISxwEuaXy-3">
          <mxGeometry relative="1" as="geometry" />
        </mxCell>
        <mxCell id="FM3w3FgmYkmISxwEuaXy-29" style="edgeStyle=orthogonalEdgeStyle;rounded=0;orthogonalLoop=1;jettySize=auto;html=1;entryX=1;entryY=0.5;entryDx=0;entryDy=0;fontSize=14;fontStyle=1" edge="1" parent="1" source="FM3w3FgmYkmISxwEuaXy-16" target="FM3w3FgmYkmISxwEuaXy-4">
          <mxGeometry relative="1" as="geometry" />
        </mxCell>
        <mxCell id="FM3w3FgmYkmISxwEuaXy-16" value="Forwarding" style="rounded=1;whiteSpace=wrap;html=1;fillColor=#f8cecc;strokeColor=#b85450;fontSize=19;fontStyle=1" vertex="1" parent="1">
          <mxGeometry x="280" y="355" width="120" height="385" as="geometry" />
        </mxCell>
        <mxCell id="FM3w3FgmYkmISxwEuaXy-21" style="edgeStyle=orthogonalEdgeStyle;rounded=0;orthogonalLoop=1;jettySize=auto;html=1;entryX=1;entryY=0.5;entryDx=0;entryDy=0;fontSize=14;fontStyle=1" edge="1" parent="1" source="FM3w3FgmYkmISxwEuaXy-7" target="FM3w3FgmYkmISxwEuaXy-16">
          <mxGeometry relative="1" as="geometry">
            <Array as="points">
              <mxPoint x="630" y="488" />
              <mxPoint x="630" y="548" />
            </Array>
          </mxGeometry>
        </mxCell>
        <mxCell id="FM3w3FgmYkmISxwEuaXy-23" style="edgeStyle=orthogonalEdgeStyle;rounded=0;orthogonalLoop=1;jettySize=auto;html=1;fontSize=14;fontStyle=1" edge="1" parent="1" source="FM3w3FgmYkmISxwEuaXy-6" target="FM3w3FgmYkmISxwEuaXy-16">
          <mxGeometry relative="1" as="geometry">
            <Array as="points">
              <mxPoint x="630" y="380" />
              <mxPoint x="630" y="548" />
            </Array>
          </mxGeometry>
        </mxCell>
        <mxCell id="FM3w3FgmYkmISxwEuaXy-24" style="edgeStyle=orthogonalEdgeStyle;rounded=0;orthogonalLoop=1;jettySize=auto;html=1;fontSize=14;fontStyle=1" edge="1" parent="1" source="FM3w3FgmYkmISxwEuaXy-8" target="FM3w3FgmYkmISxwEuaXy-16">
          <mxGeometry relative="1" as="geometry">
            <Array as="points">
              <mxPoint x="630" y="596" />
              <mxPoint x="630" y="548" />
            </Array>
          </mxGeometry>
        </mxCell>
        <mxCell id="FM3w3FgmYkmISxwEuaXy-25" style="edgeStyle=orthogonalEdgeStyle;rounded=0;orthogonalLoop=1;jettySize=auto;html=1;fontSize=14;fontStyle=1" edge="1" parent="1" source="FM3w3FgmYkmISxwEuaXy-9" target="FM3w3FgmYkmISxwEuaXy-16">
          <mxGeometry relative="1" as="geometry">
            <Array as="points">
              <mxPoint x="630" y="710" />
              <mxPoint x="630" y="548" />
            </Array>
          </mxGeometry>
        </mxCell>
      </root>
    </mxGraphModel>
  </diagram>
</mxfile>
